<svg xmlns="http://www.w3.org/2000/svg" width="192" height="192" viewBox="0 0 192 192"><defs><filter id="b" width="300%" height="300%" x="-75%" y="-75%"><feMorphology in="SourceAlpha" operator="dilate" radius="4" result="thicken"/><feGaussianBlur in="thicken" result="blurred" stdDeviation="10"/><feFlood flood-color="#ea43f7" result="glowColor"/><feComposite in="glowColor" in2="blurred" operator="in" result="softGlow_colored"/><feMerge><feMergeNode in="softGlow_colored"/><feMergeNode in="SourceGraphic"/></feMerge></filter><filter id="a" width="300%" height="300%" x="-75%" y="-75%"><feMorphology in="SourceAlpha" operator="dilate" radius="1" result="thicken"/><feGaussianBlur in="thicken" result="blurred" stdDeviation="5"/><feFlood flood-color="rgba(255,255,255,.75)" result="glowColor"/><feComposite in="glowColor" in2="blurred" operator="in" result="softGlow_colored"/><feMerge><feMergeNode in="softGlow_colored"/><feMergeNode in="SourceGraphic"/></feMerge></filter></defs><path fill="#181825" d="M0 0h192v192H0z"/><path fill="#232332" d="M192 66v-6h-60V0h-6v60H66V0h-6v60H0v6h60v60H0v6h60v60h6v-60h60v60h6v-60h60v-6h-60V66Zm-66 60H66V66h60Z"/><path fill="#fff" d="M132 66h60v60h-60z" filter="url(#a)"/><path fill="#def1de" d="M132 126h60v66h-60z"/><path fill="#77fa65" d="M114 138h6v6h-6zM108 96h6v6h-6zM96 72h6v6h-6zM150 48h6v6h-6zM180 42h6v6h-6z"/><path fill="#ea43f7" d="M0 0h60v60H0z" filter="url(#b)"/></svg>
